<svg xmlns="http://www.w3.org/2000/svg" xmlns:xlink="http://www.w3.org/1999/xlink" width="12" height="12" viewBox="0 0 12 12"><defs><style>.a{fill:#fff;stroke:#707070;}.b{clip-path:url(#a);}</style><clipPath id="a"><rect class="a" width="12" height="12" transform="translate(-0.497)"/></clipPath></defs><g class="b" transform="translate(0.497)"><g transform="translate(0.107 0)"><path d="M12.2,4.4H10.88A2.6,2.6,0,0,1,8.586,3.024l-.245-.459A2.2,2.2,0,0,0,7.2,1.55V1.2a.8.8,0,0,0-1.6,0v.35A2.2,2.2,0,0,0,4.459,2.565l-.245.459A2.6,2.6,0,0,1,1.92,4.4H.6a.2.2,0,0,0-.2.2v.8a.2.2,0,0,0,.2.2H1.914L1.26,7.4H1a.2.2,0,0,0-.2.2A1.6,1.6,0,1,0,4,7.6a.2.2,0,0,0-.2-.2H3.54L2.886,5.6h.488a2.4,2.4,0,0,0,1.581-.594l.526-.46a1.4,1.4,0,0,1,.12-.093v5.3l-.324.647H4.8a.2.2,0,0,0-.16.08l-.54.72H3.2a.2.2,0,0,0-.2.2v.8a.2.2,0,0,0,.2.2H9.6a.2.2,0,0,0,.2-.2v-.8a.2.2,0,0,0-.2-.2H8.7l-.54-.72A.2.2,0,0,0,8,10.4H7.524L7.2,9.753v-5.3a1.4,1.4,0,0,1,.12.093h0l.526.461a2.4,2.4,0,0,0,1.58.594h.488L9.26,7.4H9a.2.2,0,0,0-.2.2,1.6,1.6,0,1,0,3.2,0,.2.2,0,0,0-.2-.2h-.26l-.655-1.8H12.2a.2.2,0,0,0,.2-.2V4.6a.2.2,0,0,0-.2-.2ZM6,1.2a.4.4,0,0,1,.8,0v.237a2.2,2.2,0,0,0-.8,0ZM2.4,8.8a1.2,1.2,0,0,1-1.183-1H3.583A1.2,1.2,0,0,1,2.4,8.8Zm.714-1.4H1.686L2.34,5.6h.12ZM9.4,12h-6v-.4h6Zm-1.2-.8H4.6l.3-.4h3ZM6.821,9.889l.255.511H5.724l.255-.511A.2.2,0,0,0,6,9.8V4.259a1.389,1.389,0,0,1,.8,0V9.8a.2.2,0,0,0,.021.089ZM10.4,8.8a1.2,1.2,0,0,1-1.183-1h2.367A1.2,1.2,0,0,1,10.4,8.8Zm.714-1.4H9.686l.655-1.8h.12ZM12,5.2H9.427a2,2,0,0,1-1.317-.5l-.526-.46h0a1.8,1.8,0,0,0-2.366,0l-.526.461A2,2,0,0,1,3.373,5.2H.8V4.8H1.92A3,3,0,0,0,4.567,3.212l.245-.459a1.8,1.8,0,0,1,3.176,0l.245.459A3,3,0,0,0,10.88,4.8H12Z" transform="translate(-0.4 -0.4)"/><path d="M6.4,2.2a.6.6,0,1,0,.6.6.6.6,0,0,0-.6-.6Zm0,.8a.2.2,0,1,1,.2-.2.2.2,0,0,1-.2.2Z" transform="translate(-0.4 -0.4)"/></g></g></svg>