<svg xmlns="http://www.w3.org/2000/svg" xmlns:xlink="http://www.w3.org/1999/xlink" width="22" height="17" viewBox="0 0 22 17"><defs><style>.a{fill:#fff;stroke:#707070;}.b{clip-path:url(#a);}.c{fill:#ef7418;}</style><clipPath id="a"><rect class="a" width="22" height="17" transform="translate(880 347)"/></clipPath></defs><g class="b" transform="translate(-880 -347)"><g transform="translate(880 344.5)"><path class="c" d="M11,8a3,3,0,1,0,3,3A3,3,0,0,0,11,8Z"/><path class="c" d="M11,3.5A11.827,11.827,0,0,0,0,11a11.817,11.817,0,0,0,22,0A11.822,11.822,0,0,0,11,3.5ZM11,16a5,5,0,1,1,5-5A5,5,0,0,1,11,16Z"/></g></g></svg>