<svg xmlns="http://www.w3.org/2000/svg" xmlns:xlink="http://www.w3.org/1999/xlink" width="12" height="12" viewBox="0 0 12 12"><defs><style>.a{fill:#fff;stroke:#707070;}.b{clip-path:url(#a);}</style><clipPath id="a"><rect class="a" width="12" height="12" transform="translate(-0.29)"/></clipPath></defs><g class="b" transform="translate(0.29)"><g transform="translate(0.041 0)"><g transform="translate(0 0)"><path d="M11.983,11.72,10.854,9.131a.6.6,0,0,0-.39-.383l-2.921-.93L7.23,7.037l.924-1.108A.2.2,0,0,0,8.2,5.8V5.4h.2A.6.6,0,0,0,9,4.8V4a.6.6,0,0,0-.6-.6H8.2V3.2h.2a.2.2,0,0,0,.2-.214L8.453.929a1,1,0,0,0-1-.929H4.6a1,1,0,0,0-1,1V3a.2.2,0,0,0,.2.2v.2H3.6A.6.6,0,0,0,3,4v.8a.6.6,0,0,0,.6.6h.2v.4a.2.2,0,0,0,.046.128l.92,1.1-.365.82-1.008.315-1.858.581a.591.591,0,0,0-.384.366L.017,11.72A.2.2,0,0,0,.2,12H11.8a.2.2,0,0,0,.183-.28ZM8.2,3.8h.2a.2.2,0,0,1,.2.2v.8a.2.2,0,0,1-.2.2H8.2ZM3.8,5H3.6a.2.2,0,0,1-.2-.2V4a.2.2,0,0,1,.2-.2h.2ZM7.458,8.228l.715.224L6.882,9.517l-.527-.659ZM6.532,9.785,6,10.317l-.532-.532L6,9.12ZM4.82,7.9,5.1,7.257l.821.329a.2.2,0,0,0,.149,0l.814-.326.261.653L6,8.57ZM4,1A.6.6,0,0,1,4.6.4H7.455a.6.6,0,0,1,.6.557L8.185,2.8H6.8c-.929,0-1.4-.336-1.4-1a.2.2,0,1,0-.4,0,1,1,0,0,1-1,1V1Zm.2,4.728V3.185a1.4,1.4,0,0,0,.994-.655A1.784,1.784,0,0,0,6.8,3.2h1V5.728L6.879,6.833,6,7.185l-.879-.351Zm.349,2.5L5.7,8.86l-.525.656L3.865,8.439ZM5.044,11.6H.505l1.02-2.343a.2.2,0,0,1,.13-.128l1.754-.548L5.066,9.949l.313.313Zm.412,0,.252-1.009.15.15a.2.2,0,0,0,.283,0l.15-.15L6.544,11.6Zm1.5,0-.335-1.339.268-.268a.2.2,0,0,0,.091-.039L8.629,8.594l.086.027L8.01,10.737a.2.2,0,0,0,.033.188l.54.675Zm1.468-.84L9.1,8.74l.322.1.174,2.084-.576.576Zm1.059.84.459-.459A.2.2,0,0,0,10,10.983L9.831,8.969l.514.16a.212.212,0,0,1,.136.144L11.495,11.6Z" transform="translate(0 0)"/></g></g></g></svg>